<mxfile host="app.diagrams.net" modified="2022-08-14T18:13:17.954Z" agent="5.0 (Macintosh; Intel Mac OS X 10_15_7) AppleWebKit/537.36 (KHTML, like Gecko) Chrome/104.0.5112.81 Safari/537.36 Edg/104.0.1293.54" etag="NK65wNBourvv-pzUctVF" version="20.2.3" type="github">
  <diagram name="Page-1" id="80d4a630-b321-0f5e-ff81-c5a36ef4752d">
    <mxGraphModel dx="1452" dy="995" grid="1" gridSize="10" guides="1" tooltips="1" connect="1" arrows="1" fold="1" page="1" pageScale="1" pageWidth="1100" pageHeight="850" background="none" math="0" shadow="0">
      <root>
        <mxCell id="0" />
        <mxCell id="1" parent="0" />
        <mxCell id="Bey6XrJdhfMOv0rG3bet-1" value="" style="fontColor=#0066CC;verticalAlign=top;verticalLabelPosition=bottom;labelPosition=center;align=center;html=1;outlineConnect=0;fillColor=#CCCCCC;strokeColor=#6881B3;gradientColor=none;gradientDirection=north;strokeWidth=2;shape=mxgraph.networks.mobile;" vertex="1" parent="1">
          <mxGeometry x="690" y="499.8" width="40" height="60" as="geometry" />
        </mxCell>
        <mxCell id="Bey6XrJdhfMOv0rG3bet-2" value="" style="fontColor=#0066CC;verticalAlign=top;verticalLabelPosition=bottom;labelPosition=center;align=center;html=1;outlineConnect=0;fillColor=#CCCCCC;strokeColor=#6881B3;gradientColor=none;gradientDirection=north;strokeWidth=2;shape=mxgraph.networks.storage;" vertex="1" parent="1">
          <mxGeometry x="330" y="538" width="50" height="50" as="geometry" />
        </mxCell>
        <mxCell id="Bey6XrJdhfMOv0rG3bet-3" value="" style="fontColor=#0066CC;verticalAlign=top;verticalLabelPosition=bottom;labelPosition=center;align=center;html=1;outlineConnect=0;fillColor=#CCCCCC;strokeColor=#6881B3;gradientColor=none;gradientDirection=north;strokeWidth=2;shape=mxgraph.networks.virtual_pc;" vertex="1" parent="1">
          <mxGeometry x="610" y="530" width="80" height="58" as="geometry" />
        </mxCell>
        <mxCell id="Bey6XrJdhfMOv0rG3bet-4" value="" style="fontColor=#0066CC;verticalAlign=top;verticalLabelPosition=bottom;labelPosition=center;align=center;html=1;outlineConnect=0;fillColor=#CCCCCC;strokeColor=#6881B3;gradientColor=none;gradientDirection=north;strokeWidth=2;shape=mxgraph.networks.radio_tower;" vertex="1" parent="1">
          <mxGeometry x="310" y="185" width="110" height="160" as="geometry" />
        </mxCell>
        <mxCell id="Bey6XrJdhfMOv0rG3bet-9" value="" style="ellipse;shape=cloud;whiteSpace=wrap;html=1;" vertex="1" parent="1">
          <mxGeometry x="560" y="70" width="180" height="140" as="geometry" />
        </mxCell>
        <mxCell id="Bey6XrJdhfMOv0rG3bet-8" value="" style="aspect=fixed;perimeter=ellipsePerimeter;html=1;align=center;shadow=0;dashed=0;spacingTop=3;image;image=img/lib/active_directory/home.svg;" vertex="1" parent="1">
          <mxGeometry x="220" y="471.6" width="120" height="116.4" as="geometry" />
        </mxCell>
        <mxCell id="Bey6XrJdhfMOv0rG3bet-5" value="" style="fontColor=#0066CC;verticalAlign=top;verticalLabelPosition=bottom;labelPosition=center;align=center;html=1;outlineConnect=0;fillColor=#CCCCCC;strokeColor=#6881B3;gradientColor=none;gradientDirection=north;strokeWidth=2;shape=mxgraph.networks.server_storage;" vertex="1" parent="1">
          <mxGeometry x="630" y="120" width="50" height="55" as="geometry" />
        </mxCell>
        <mxCell id="Bey6XrJdhfMOv0rG3bet-13" value="Fileman Home" style="text;strokeColor=none;fillColor=none;html=1;fontSize=24;fontStyle=1;verticalAlign=middle;align=center;" vertex="1" parent="1">
          <mxGeometry x="240" y="600" width="100" height="40" as="geometry" />
        </mxCell>
        <mxCell id="Bey6XrJdhfMOv0rG3bet-14" value="Cyberduck Fileman" style="text;strokeColor=none;fillColor=none;html=1;fontSize=24;fontStyle=1;verticalAlign=middle;align=center;" vertex="1" parent="1">
          <mxGeometry x="620" y="210" width="100" height="40" as="geometry" />
        </mxCell>
        <mxCell id="Bey6XrJdhfMOv0rG3bet-15" value="" style="aspect=fixed;perimeter=ellipsePerimeter;html=1;align=center;shadow=0;dashed=0;spacingTop=3;image;image=img/lib/active_directory/internet_globe.svg;" vertex="1" parent="1">
          <mxGeometry x="340" y="330" width="50" height="50" as="geometry" />
        </mxCell>
        <mxCell id="Bey6XrJdhfMOv0rG3bet-16" value="" style="endArrow=classic;html=1;entryX=0.31;entryY=0.8;entryDx=0;entryDy=0;entryPerimeter=0;shadow=1;strokeWidth=3;strokeColor=#737373;endFill=1;curved=1;startArrow=classic;startFill=1;" edge="1" parent="1" source="Bey6XrJdhfMOv0rG3bet-8" target="Bey6XrJdhfMOv0rG3bet-9">
          <mxGeometry width="50" height="50" relative="1" as="geometry">
            <mxPoint x="470" y="480" as="sourcePoint" />
            <mxPoint x="520" y="430" as="targetPoint" />
            <Array as="points">
              <mxPoint x="500" y="370" />
              <mxPoint x="280" y="320" />
            </Array>
          </mxGeometry>
        </mxCell>
        <mxCell id="Bey6XrJdhfMOv0rG3bet-20" value="Offload" style="text;strokeColor=none;fillColor=none;html=1;fontSize=24;fontStyle=1;verticalAlign=middle;align=center;" vertex="1" parent="1">
          <mxGeometry x="410" y="260" width="100" height="40" as="geometry" />
        </mxCell>
        <mxCell id="Bey6XrJdhfMOv0rG3bet-21" value="Fileman App" style="text;strokeColor=none;fillColor=none;html=1;fontSize=24;fontStyle=1;verticalAlign=middle;align=center;" vertex="1" parent="1">
          <mxGeometry x="620" y="588" width="100" height="40" as="geometry" />
        </mxCell>
        <mxCell id="Bey6XrJdhfMOv0rG3bet-22" value="" style="endArrow=classic;startArrow=classic;html=1;shadow=1;strokeColor=#737373;strokeWidth=3;curved=1;entryX=0;entryY=0.5;entryDx=0;entryDy=0;entryPerimeter=0;" edge="1" parent="1" source="Bey6XrJdhfMOv0rG3bet-2" target="Bey6XrJdhfMOv0rG3bet-3">
          <mxGeometry width="50" height="50" relative="1" as="geometry">
            <mxPoint x="440" y="590" as="sourcePoint" />
            <mxPoint x="490" y="540" as="targetPoint" />
          </mxGeometry>
        </mxCell>
        <mxCell id="Bey6XrJdhfMOv0rG3bet-23" value="" style="endArrow=classic;startArrow=classic;html=1;shadow=1;strokeColor=#737373;strokeWidth=3;curved=1;entryX=0.55;entryY=0.95;entryDx=0;entryDy=0;entryPerimeter=0;" edge="1" parent="1" source="Bey6XrJdhfMOv0rG3bet-3" target="Bey6XrJdhfMOv0rG3bet-9">
          <mxGeometry width="50" height="50" relative="1" as="geometry">
            <mxPoint x="630" y="410" as="sourcePoint" />
            <mxPoint x="680" y="360" as="targetPoint" />
          </mxGeometry>
        </mxCell>
      </root>
    </mxGraphModel>
  </diagram>
</mxfile>
